<svg xmlns="http://www.w3.org/2000/svg" width="462.308" height="324.603" viewBox="0 0 462.308 324.603"><defs><style>.a{fill:#d3c6f4;}.b{fill:#9c78ed;}.c{fill:#7847f4;}.d{fill:#5b23a9;}.e{fill:#403657;}.f,.g,.i{fill:#fff;}.f,.i{stroke:#7847f4;stroke-miterlimit:10;}.f{stroke-width:0.75px;}.h{fill:#6020bd;}.i{stroke-width:0.5px;}.j{fill:#e0d5f8;}.k{fill:#1a0b42;}.l{fill:#614c6e;}.m{opacity:0.5;}</style></defs><g transform="translate(0 -192.103)"><path class="a" d="M195.97,254.521C180.6,198.764,111.337,180.8,71.643,222.473q-.855.9-1.708,1.825c-56.907,61.86-30.024,214.3,88.739,252.94s242.294-31.918,249.234-94.99-47.852-82.891-132.882-65.254C226.985,326.958,205.538,289.231,195.97,254.521Z"/><path class="a" d="M294.765,264.058c-15.89,2.587-20.294,16.665-8.025,26.652,4.056,3.3,9.847,6.044,18.1,7.412,31.429,5.214,48.106-8.691,35.509-26.72C332.57,260.275,310.512,261.494,294.765,264.058Z"/><path class="a" d="M48.846,378.005c-7.8-14.082-22.541-13.471-27.8,1.45-1.737,4.932-2.362,11.31-.863,19.537,5.709,31.343,24.43,42.342,37.144,24.395C65.178,412.31,56.579,391.961,48.846,378.005Z"/><path class="a" d="M419.109,389.578c-1.464,7.663,4.864,13.091,12.033,10.138a15.169,15.169,0,0,0,6.887-6.166c8.1-12.6,4-23.411-7.281-22.3C423.786,371.933,420.559,381.984,419.109,389.578Z"/><path class="a" d="M378.938,308.713c7.637,1.594,13.172-4.64,10.341-11.859a15.171,15.171,0,0,0-6.047-6.991c-12.462-8.314-23.34-4.4-22.423,6.9C361.375,303.736,371.37,307.134,378.938,308.713Z"/><path class="a" d="M193.317,226.711c6.046,4.93,13.829,1.943,14.639-5.769a15.175,15.175,0,0,0-2.152-8.99c-7.238-13.116-18.7-14.644-23.083-4.193C180.015,214.21,187.324,221.826,193.317,226.711Z"/><path class="b" d="M435.138,501.9a8.017,8.017,0,0,0,7.186-2.228,6.579,6.579,0,0,0,2-4.3v-.064c-.035-10.69,13.1-9.978,17.314-23.047s-12.444-14.17-21.962-6.1c-6.842,5.8-15.054-2.3-25,4.464-8.635,5.872-3.825,20.334-17.99,15.813-4.523-1.446-8.573-.052-11.99,2.512a20.277,20.277,0,0,0-7.564,11.587l1.127.8C406.2,518.458,418.785,499.174,435.138,501.9Z"/><path class="c" d="M407.456,501.334l37.037-23.774a1.067,1.067,0,0,0-1.153-1.795l-39.833,25.569Z"/><path class="d" d="M405.461,430.605c-1.564-23.3-1.821-47.739-.087-63.941,2.266-21.167,7.391-35.9,15.235-43.8a1.336,1.336,0,0,1,1.895,1.884c-13.711,13.8-18.641,50.843-14.286,107.21Z"/><path class="c" d="M408.967,347.963s-11.164-.018-10.366-19.645C398.6,328.318,415.682,333.191,408.967,347.963Z"/><path class="c" d="M408.032,358.06s-.6-11.147,19.037-11.443C427.069,346.617,423.154,363.943,408.032,358.06Z"/><path class="c" d="M416.569,330.529s-4.286-10.309,14.133-17.136C430.7,313.393,432.787,331.034,416.569,330.529Z"/><path class="c" d="M405.524,378.317s-10.512,3.76-16.4-14.981C389.124,363.336,406.847,362.145,405.524,378.317Z"/><path class="c" d="M406.129,388.748s-2.522-10.876,16.772-14.563C422.9,374.185,422.041,391.927,406.129,388.748Z"/><path class="c" d="M405.539,403.112s-10.439,3.959-16.681-14.667C388.858,388.445,406.555,386.918,405.539,403.112Z"/><path class="c" d="M81.563,482.539l-3.042-.12-1.613-.065-4.571-.183S30.1,410.466,56.56,387.083c8.146-7.2,22.387-1.23,19.239,31.856C72.881,449.609,81.563,482.539,81.563,482.539Z"/><path class="d" d="M78.521,482.419l-1.613-.065c-7.374-17.373-11.1-36.037-12.944-49.137a227.015,227.015,0,0,1-2.3-26.962.73.73,0,0,1,1.46-.011,225.189,225.189,0,0,0,2.285,26.793C67.272,446.2,71.034,465.017,78.521,482.419Z"/><path class="b" d="M89.954,496.9l-4.131,1.534-2.192.812-6.209,2.3s-96.394-72.28-74.066-118.269c6.874-14.159,29.229-14.118,43.458,31.847C60.005,457.74,89.954,496.9,89.954,496.9Z"/><path class="c" d="M85.823,498.439l-2.192.812C64.1,480.145,48.724,457.28,38.956,440.8a327.959,327.959,0,0,1-18.091-34.748,1.056,1.056,0,0,1,1.944-.828,326.3,326.3,0,0,0,17.983,34.528C50.611,456.312,66.122,479.359,85.823,498.439Z"/><path class="c" d="M419.448,500.995a27,27,0,0,0-.609-5.019c-3.465-15.865,5.962-18.857,18.394-23.867s13.9-19.894,5.1-32.261,7.014-22.311,1.19-40.926-26.05-6.233-30.475,10.928c-3.179,12.339-19.35,9.67-25.338,25.672-5.2,13.89,12.232,26.721-7.9,33.089-6.431,2.031-9.986,6.967-11.848,12.744a28.8,28.8,0,0,0,.725,19.64Z"/><path class="d" d="M394.82,500.995l33.165-81.873a1.515,1.515,0,1,0-2.809-1.136l-33.625,83.009Z"/><path class="e" d="M118.486,253.472s.7-14.74-8.268-17.571c-13.96-4.409-17.846,2.831-20,7.615-2.762,6.131-1.584,18.157,6.744,19.318C109.4,264.568,117.718,257.591,118.486,253.472Z"/><path class="e" d="M127.485,302.763a15.33,15.33,0,0,0,15.007-12.186c1.07-5.115,2.116-9.643,2.116-12.187v-.066c.065-.8.1-1.608.107-2.4.1-11.631-7.075-32.874-32.3-29.5,0,0-20.928,2.388-23.31,22.839,0,0-.992,9.435-1.651,16.267-.012.122-.024.242-.036.361a15.327,15.327,0,0,0,15.257,16.869Z"/><path class="c" d="M157.428,327.072s4.459,35.332,9.554,53.469c0,0,7.238-3.372,16.711-7.948,10.272-4.962,25.039-14.016,25.039-14.016l3.732,8.991s-38.146,36-50.78,38.039-20.38-43.2-20.38-43.2Z"/><path class="f" d="M207.95,359.631s-1.048-5.019,1.2-8.417,5.666-9.757,9.681-11.084c3.36-1.111-1.6,4.56-1.745,8.158a56.571,56.571,0,0,0,8.6-1.8c3.17-1.03,9.443-2.314,12.351-2.887a.8.8,0,0,1,.7,1.38c-.992.86-3.066,1.941-7.353,2.974,0,0,10.449-1.979,11.533-.378s-12.025,3.833-12.025,3.833,10.171-.6,10.436.994c.161.971-10.376,3.2-10.376,3.2s9.616.258,7.29,1.776c-.677.442-19.293,2.537-25.774,10.19C212.464,367.568,208.1,363.061,207.95,359.631Z"/><path class="c" d="M93.107,320.113s-21.341,6.293-39.718,10.44c0,0-.477-7.97-.958-18.48-.522-11.395.417-28.692.417-28.692l-9.683.995s-13.522,50.678-9.3,62.762S91.637,342.3,91.637,342.3Z"/><path class="f" d="M52.293,284.571s4.914-1.466,6.834-5.058,7.222-10.825,3.949-13.5c-1.195-.977-2.056,3.288-5.151,5.13a56.592,56.592,0,0,1-2.51-8.421c-.6-3.279-2.456-9.407-3.336-12.238a.8.8,0,0,0-1.545.045c-.284,1.281-.249,3.619.882,7.882,0,0-3.23-10.132-5.154-10.325s2.349,12.4,2.349,12.4-4.309-9.232-5.839-8.706c-.931.32,2.125,10.647,2.125,10.647s-4.8-8.336-5.03-5.568c-.067.806,6.946,18.178,3.3,27.519C43.165,284.376,49.2,286.067,52.293,284.571Z"/><path class="b" d="M156.629,463.962l.17.755c-16.617,11.25-78.774,3.568-78.774,3.568.106-1.3.245-2.667.426-4.078.194-1.573.435-3.2.712-4.884.75-4.525,1.758-9.417,2.888-14.452.364-1.585.728-3.193,1.111-4.809,1.122-4.806,2.316-9.678,3.446-14.424.391-1.632.774-3.241,1.146-4.841.517-2.221,1.007-4.407,1.478-6.525.612-2.817,1.158-5.524,1.616-8.073.308-1.715.577-3.359.782-4.92.238-1.652.4-3.213.5-4.659-.988-3.652-1.908-7.228-2.766-10.7-.427-1.766-.846-3.493-1.256-5.2-1.277-5.466-2.4-10.666-3.379-15.539-.348-1.77-.692-3.493-1-5.173-1.087-5.746-1.964-10.946-2.671-15.483-.273-1.81-.53-3.5-.755-5.09-.249-1.742-.463-3.355-.648-4.817-.834-6.433-1.123-10.081-1.123-10.081.147-.118.3-.225.459-.34a33.8,33.8,0,0,1,8.109-3.718c3.458-1.186,7.283-2.217,10.654-3.031q.765-.185,1.5-.356c4.429-1.035,7.741-1.636,7.741-1.636,15.072,3.157,19.372,1.126,19.372,1.126l7.662,2.261.9.316,5.584,1.96.225.083,10.014,3.525,6.679,2.343-2.593,11.954-1.13,5.221-3.414,15.736-1.123,5.2-3.4,15.681-1.118,5.149-2.814,12.994.561,2.481,1.1,4.817,1.742,7.659,1.585,6.928,1.091,4.8,3.28,14.444,1.094,4.773,3.253,14.278Z"/><path class="f" d="M134.926,319.161c-1.6,9.421-6.172,18.9-15.668,19.922-11.472,1.241-17.42-13.149-20.008-21.989,4.429-1.035,9.021-2.047,9.021-2.047,15.072,3.157,17.98,1.234,17.98,1.234l7.774,2.564Z"/><path class="g" d="M118.092,331.169c-12.023,0-14.9-14.849-14.926-15a.593.593,0,0,1,1.166-.215c.11.6,2.837,14.608,14.458,14.014,10.171-.514,10.769-11.8,10.79-12.283a.593.593,0,0,1,1.184.049c-.005.129-.658,12.849-11.914,13.418Q118.466,331.169,118.092,331.169Z"/><path class="c" d="M96.524,327.075a2.935,2.935,0,1,1-2.935-2.935A2.935,2.935,0,0,1,96.524,327.075Z"/><path class="c" d="M90.645,341.394a2.934,2.934,0,1,1-2.935-2.934A2.935,2.935,0,0,1,90.645,341.394Z"/><path class="c" d="M109.384,348.164a2.935,2.935,0,1,1-2.934-2.935A2.935,2.935,0,0,1,109.384,348.164Z"/><path class="c" d="M96.314,356.17a2.935,2.935,0,1,1-3.814-1.637A2.935,2.935,0,0,1,96.314,356.17Z"/><path class="c" d="M121.755,361.59a2.935,2.935,0,1,1-2.935-2.935A2.935,2.935,0,0,1,121.755,361.59Z"/><path class="c" d="M140.473,367.638a2.935,2.935,0,1,1-2.935-2.935A2.935,2.935,0,0,1,140.473,367.638Z"/><path class="c" d="M144.239,330.009a2.935,2.935,0,1,1-2.935-2.934A2.935,2.935,0,0,1,144.239,330.009Z"/><path class="c" d="M122.942,380.331a2.935,2.935,0,1,1-2.935-2.934A2.935,2.935,0,0,1,122.942,380.331Z"/><path class="c" d="M104.862,389.431a2.935,2.935,0,1,1-2.935-2.934A2.935,2.935,0,0,1,104.862,389.431Z"/><path class="c" d="M102.756,372.859a2.935,2.935,0,1,1-2.935-2.935A2.935,2.935,0,0,1,102.756,372.859Z"/><path class="c" d="M131.669,348.932A2.935,2.935,0,1,1,128.734,346,2.936,2.936,0,0,1,131.669,348.932Z"/><path class="c" d="M147.9,345.229a2.935,2.935,0,1,1-2.935-2.934A2.935,2.935,0,0,1,147.9,345.229Z"/><path class="c" d="M137.538,385.187a2.934,2.934,0,1,1-2.935-2.935A2.935,2.935,0,0,1,137.538,385.187Z"/><path class="c" d="M138.325,408.407a2.935,2.935,0,1,1-2.935-2.934A2.935,2.935,0,0,1,138.325,408.407Z"/><path class="c" d="M123.387,398.719a2.935,2.935,0,1,1-3.814-1.636A2.934,2.934,0,0,1,123.387,398.719Z"/><path class="c" d="M103.408,407.319a2.935,2.935,0,1,1-3.814-1.637A2.936,2.936,0,0,1,103.408,407.319Z"/><path class="b" d="M162.848,500.974l-.608-3.657-2.368-14.184-.812-4.859-2.26-13.558-4.11.186L98.2,467.373l-20.173.91-1.3,10.544-.607,4.912-1.79,14.566L74,500.974Z"/><path class="e" d="M162.844,500.974l-.556-3.3-.046-.347-.393-2.335-.393-2.312-1.6-9.548-.462-2.821-.347-2.034-.046-.3L156.947,465.6l-.138-.878-.185-.763-.162-.671-.925-4.092-1.826-8-.532-2.289-.9-4-1.086-4.786-.74-3.283-.532-2.289-2.011-8.854-.74-3.237-.347-1.572-.162-.717-1.41-6.219c-22.148,6.543-45.614,2.659-56.017.324-.463,2.1-.971,4.3-1.48,6.52q-.174.727-.347,1.456l-.555,2.289c-.069.37-.161.717-.254,1.087-.855,3.629-1.757,7.328-2.636,11-.184.763-.346,1.526-.531,2.266-.093.393-.185.763-.278,1.156-.37,1.618-.739,3.236-1.109,4.809-.463,2.1-.9,4.161-1.318,6.2-.162.763-.324,1.5-.463,2.243-.416,2.058-.786,4.069-1.109,6.011-.278,1.688-.509,3.306-.694,4.9-.069.486-.115.971-.185,1.434-.069.786-.162,1.549-.231,2.312,0,.115-.023.208-.023.323l-1.295,10.543-.208,1.641-.277,2.289-.116.971L74.69,495.265l-.278,2.312-.092.74L74,500.974Z"/><path class="g" d="M136.043,279.732s3.6-4.564,6.281-.79-1.108,14.922-7.667,12.2Z"/><path class="c" d="M136.089,287.7a.552.552,0,0,0,.534-.385c1.016-3.441,4.768-4.837,4.806-4.85a.519.519,0,0,0,.321-.679.563.563,0,0,0-.713-.307c-.176.063-4.311,1.589-5.482,5.552a.524.524,0,0,0,.384.649A.559.559,0,0,0,136.089,287.7Z"/><path class="c" d="M139.877,285.964a.572.572,0,0,0,.3-.084.511.511,0,0,0,.165-.728,4.986,4.986,0,0,0-2.08-1.593.566.566,0,0,0-.732.266.516.516,0,0,0,.28.695,3.97,3.97,0,0,1,1.6,1.2A.563.563,0,0,0,139.877,285.964Z"/><path class="g" d="M134.42,291.071a3.889,3.889,0,1,0,3.752-1.214.707.707,0,0,1,.14-.74,4.675,4.675,0,1,1-4.6,1.632Z"/><path class="f" d="M108.271,303.051v13.676s6.356,4.9,11.314,5.33,6.666-5.414,6.666-5.414V303.916Z"/><path class="c" d="M108.271,304.391v5.456c3.327,3.692,9.234,5,17.979,3.709v-8.3Z"/><path class="f" d="M138.208,284.931c-.158,1.32-.345,2.664-.582,4-1.571,8.892-7.2,18.5-14.3,20.11-15.336,3.481-21.705-8.565-24.157-17.452-.271-.987.237-2.118.022-3.286-.508-2.77-1.627-5.916-1.881-9.018-.175-2.15-.3-4.271-.39-6.187a12.566,12.566,0,0,1,7.774-12.311c7.051-2.8,17.756-5.024,27.9.923a12.674,12.674,0,0,1,6.181,10.716A95.055,95.055,0,0,1,138.208,284.931Z"/><path class="c" d="M118.758,291.812a.6.6,0,0,1-.1-1.183l2.046-.344-2.819-7.506A.6.6,0,1,1,119,282.36l3.327,8.86-3.472.584A.671.671,0,0,1,118.758,291.812Z"/><path class="e" d="M126.1,281.879c0,1.313.677,2.377,1.511,2.377s1.511-1.064,1.511-2.377-.676-2.376-1.511-2.376S126.1,280.567,126.1,281.879Z"/><path class="e" d="M109.4,281.879c0,1.313.676,2.377,1.51,2.377s1.511-1.064,1.511-2.377-.676-2.376-1.511-2.376S109.4,280.567,109.4,281.879Z"/><path class="e" d="M132.049,275.647a29.005,29.005,0,0,0-6.287-.536c-.688.025-1.24.543-1.145,1.091l0,.014a.965.965,0,0,0,1.094.69,33.048,33.048,0,0,1,8.618.541,1.128,1.128,0,0,0-.456-.94A3.641,3.641,0,0,0,132.049,275.647Z"/><path class="e" d="M107.761,275.933a28.98,28.98,0,0,1,6.278-.622c.689.015,1.248.526,1.16,1.075l0,.014a.966.966,0,0,1-1.085.705,33.018,33.018,0,0,0-8.61.659,1.128,1.128,0,0,1,.444-.946A3.643,3.643,0,0,1,107.761,275.933Z"/><path class="g" d="M126.1,295.358c-.441,2.089-1.909,5.931-6.853,5.931s-6.346-3.511-6.824-5.931Z"/><path class="c" d="M119.314,304.88a5.84,5.84,0,0,0,2.74-.8.584.584,0,0,0-.613-.994h0a4.714,4.714,0,0,1-2.127.627,4.955,4.955,0,0,1-2.243-.63.584.584,0,0,0-.6,1A6.086,6.086,0,0,0,119.314,304.88Z"/><path class="e" d="M138.828,283.535c-.143.12-.28.078-.41-.156-2.026-3.571-.122-10.7-6.117-13.428a12.709,12.709,0,0,1-6.2-6.356,12.91,12.91,0,0,1-3.764,3.426,107.935,107.935,0,0,1-14.062,6.847,23.655,23.655,0,0,0-4.709,2.369l.128.036s-1.985,3.223-.533,8.234-.415,13.272-3.639,15.179c.057-.141,2.475-5.855,1.109-10.517-.787-2.673-.78-6.925-1.526-9.474-.826-.569-2.736-1.528-3.383-1.913-.184-2.192-.317-4.353-.41-6.306a12.791,12.791,0,0,1,8.195-12.551c7.431-2.857,18.716-5.119,29.407.943a12.85,12.85,0,0,1,6.517,10.922A93.732,93.732,0,0,1,138.828,283.535Z"/><path class="g" d="M99.1,279.7s-4.189-5.084-6.661-1.418,1.178,14.9,7.23,12.259Z"/><path class="g" d="M99.268,290.717a3.885,3.885,0,1,1-3.345-2.088.9.9,0,0,0,.044-.751,4.673,4.673,0,1,0,4.07,2.7C99.781,290.625,99.525,290.672,99.268,290.717Z"/><path class="c" d="M98.192,286.779a.511.511,0,0,1-.492-.373,7.906,7.906,0,0,0-4.435-4.71.512.512,0,0,1,.362-.957,8.807,8.807,0,0,1,5.058,5.391.511.511,0,0,1-.355.63A.5.5,0,0,1,98.192,286.779Z"/><path class="c" d="M94.7,285.1a.5.5,0,0,1-.276-.082.511.511,0,0,1-.153-.707,4.673,4.673,0,0,1,1.919-1.547.512.512,0,1,1,.418.934,3.691,3.691,0,0,0-1.477,1.167A.512.512,0,0,1,94.7,285.1Z"/><path class="f" d="M320.983,390.063c-9.748,7-25,11.8-25,11.8l-3.124-11.232-2.436-8.762-1.719-6.176-17.481-.013c.948,3.276,1.925,6.622,2.908,9.918,1.261,4.251,2.519,8.415,3.714,12.252,1.687,5.4,3.244,10.151,4.5,13.545.293.792.634,1.655,1.015,2.575,2.336,6.311,4.223,13.156,13.14,8.861,7.851-3.78,18.5-9.022,23.816-12.5Z"/><path class="c" d="M274.131,385.6c1.262,4.25,2.519,8.414,3.716,12.251a24.837,24.837,0,0,0,15.014-7.218l-2.436-8.762Z"/><path class="h" d="M270.421,324.293s18.235,43.489,26.077,57.579c0,0-10.99,9.344-21.7,9.6C274.8,391.472,268.632,343.725,270.421,324.293Z"/><path class="b" d="M227.726,501.005c.183-3.043.356-5.94.514-8.625.645-10.978,1.061-18.471,1.061-18.471l-4.3-.192-2.424-.11-29.228-1.3s-.533,8.38-1.159,20.686c-.129,2.518-.261,5.2-.394,8.01Z"/><path class="c" d="M225,473.717l4.3.192s-.416,7.493-1.061,18.471a261.093,261.093,0,0,1-36.05.615c.626-12.306,1.159-20.686,1.159-20.686l29.228,1.3Z"/><path class="c" d="M223.466,501.005c.678-11.726,1.235-21.772,1.537-27.288l-2.424-.109c-.3,5.541-.862,15.632-1.542,27.4Z"/><path class="b" d="M237.146,501.005h35.929c-.132-2.808-.265-5.492-.393-8.01-.627-12.306-1.159-20.686-1.159-20.686l-29.229,1.3-2.423.11-4.3.192s.415,7.493,1.061,18.471C236.79,495.065,236.962,497.962,237.146,501.005Z"/><path class="c" d="M239.871,473.717l-4.3.192s.415,7.493,1.061,18.471a261.093,261.093,0,0,0,36.05.615c-.627-12.306-1.159-20.686-1.159-20.686l-29.229,1.3Z"/><path class="c" d="M243.834,501.005c-.68-11.765-1.238-21.856-1.541-27.4l-2.424.109c.3,5.516.858,15.562,1.536,27.288Z"/><path class="c" d="M187.005,451.468c0,.6,0,1.2,0,1.781.013,10.689.066,18.974.119,23.041a170.909,170.909,0,0,0,30.978,5.439l1.4.106c.25.018.5.035.752.048.554.04,1.112.075,1.662.1.615.04,1.227.071,1.847.1a164.725,164.725,0,0,0,21.084-.379c1.421-.118,2.832-.255,4.252-.408l.273-.027c.361-.039.721-.083,1.086-.127l.655-.08a173.148,173.148,0,0,0,24.528-4.775c.022-1.847.031-4.586.031-8.038,0-.642,0-1.3,0-1.992v0c0-4.938-.035-11.086-.088-18.033,0-.594-.008-1.192-.013-1.8-.039-4.626-.088-9.581-.149-14.748-.009-.6-.013-1.2-.022-1.8-.066-5.3-.145-10.8-.238-16.393-.057-3.412-.118-6.855-.189-10.3-.07-3.491-.145-6.987-.228-10.461-.018-.756-.036-1.512-.058-2.269-.8-32.851-2.185-63.047-4.476-66.415-1.587-2.331-5.224-5.07-9.507-7.832q-.785-.5-1.6-1.011c-1.825-1.139-16.709-6.2-18.6-7.308l-15.733-1.1c-.1.058-15.14,5.132-15.237,5.185-.646.369-1.3.743-1.948,1.117-5.571,3.214-11.067,6.6-14.233,9.515a15.469,15.469,0,0,0-1.227,1.24,8.757,8.757,0,0,0-.735.941,4.95,4.95,0,0,0-.549,1.381c-1.9,6.917-2.9,34.1-3.4,63.676q-.053,3.178-.1,6.389-.02,1.405-.04,2.819c-.013.646-.022,1.3-.026,1.943l-.013.972q-.033,2.414-.053,4.811-.02,1.773-.039,3.539C187.036,425.212,186.992,439.679,187.005,451.468Z"/><path class="f" d="M158.87,493.709c-.386,4.2,4.727,1.922,3.281-6.587s2.656-16.213,4.423-15.966-1.464,9.291.11,12.549,3.6-3.073,5.624-6.912c2.1-3.988,1.975-12.69,1.021-18.9s10.3-43.937,10.359-54.869l1.372-4.634,5.022-16.969,7.862-26.572s-4.71-20.113-12.651-18.385c0,0-4.2,14.009-8.7,29.809-.761,2.682-1.531,5.417-2.291,8.143-3.2,11.455-6.209,22.764-7.607,29.475-3.694,17.716-3.98,54.542-3.98,54.542s-6.517,13.531-6.671,19.551C155.885,484.4,159.253,489.51,158.87,493.709Z"/><path class="c" d="M174.3,374.417l10.755,23.974,5.022-16.969L176.6,366.274C175.835,368.956,175.065,371.691,174.3,374.417Z"/><path class="c" d="M173.771,367.276c4.719,8.091,9.516,16.138,14.3,24.2,1.574-5.272,3.205-10.333,4.736-14.986,0-.013.008-.022.013-.035.611-1.86,1.209-3.654,1.781-5.369a.416.416,0,0,1,.031-.088c.2-.6.391-1.2.589-1.776v-.005c2.282-6.9,4.049-12.382,4.555-15.579,1.363-8.6-2.352-25.464-7.585-28.788h0c-.136.3-.549-.634-.795-.062-.919,2.124-5,7.37-7.019,12.479-.259.651-.523,1.328-.8,2.019C180.653,346.8,177.078,356.573,173.771,367.276Z"/><path class="h" d="M231.944,322.519c6.813,0,11.616-6.216,11.817-6.481a.921.921,0,0,0-.119-1.237.787.787,0,0,0-1.157.127c-.062.082-4.534,5.832-10.541,5.832-5.937,0-9.557-6.508-9.592-6.574a.794.794,0,0,0-1.124-.317.913.913,0,0,0-.3,1.2C221.1,315.374,225.05,322.519,231.944,322.519Z"/><path class="h" d="M260.75,382.08a.786.786,0,0,0,.374-.1.917.917,0,0,0,.365-1.192l-2.972-6.279a.8.8,0,0,0-1.114-.39.916.916,0,0,0-.365,1.191l2.971,6.279A.825.825,0,0,0,260.75,382.08Z"/><path class="h" d="M266.942,376.936a.794.794,0,0,0,.365.13.848.848,0,0,0,.9-.805l.582-7.01a.871.871,0,0,0-.753-.961.847.847,0,0,0-.9.8l-.582,7.009A.906.906,0,0,0,266.942,376.936Z"/><path class="h" d="M250.979,366.067a.849.849,0,0,0,.818-.742l1.073-6.943a.883.883,0,0,0-.683-1.02.837.837,0,0,0-.954.731l-1.073,6.943a.882.882,0,0,0,.683,1.019A.8.8,0,0,0,250.979,366.067Z"/><path class="h" d="M224.287,368.651a.779.779,0,0,0,.421-.123.922.922,0,0,0,.291-1.215l-3.352-6.055a.8.8,0,0,0-1.135-.312.921.921,0,0,0-.291,1.215l3.352,6.055A.816.816,0,0,0,224.287,368.651Z"/><path class="h" d="M257.078,341.51a.787.787,0,0,0,.449-.142l5.525-3.822a.925.925,0,0,0,.247-1.226.8.8,0,0,0-1.147-.263l-5.525,3.822a.923.923,0,0,0-.246,1.226A.817.817,0,0,0,257.078,341.51Z"/><path class="h" d="M232.466,397.925a.782.782,0,0,0,.373-.1.916.916,0,0,0,.365-1.192l-2.971-6.279a.8.8,0,0,0-1.114-.39.916.916,0,0,0-.365,1.191l2.971,6.279A.825.825,0,0,0,232.466,397.925Z"/><path class="h" d="M245.52,346.234a.818.818,0,0,0,.7-.416.923.923,0,0,0-.263-1.222l-5.577-3.734a.8.8,0,0,0-1.143.281.924.924,0,0,0,.263,1.222l5.577,3.734A.791.791,0,0,0,245.52,346.234Z"/><path class="h" d="M258.785,320.125a.886.886,0,0,0,.094.479.823.823,0,0,0,.674.466.848.848,0,0,0,.884-.822l.264-4.041c-.523-.334-1.053-.673-1.6-1.011Z"/><path class="h" d="M266.219,358.651a.817.817,0,0,0,.7-.416.923.923,0,0,0-.263-1.222l-5.577-3.734a.8.8,0,0,0-1.143.281.924.924,0,0,0,.263,1.222l5.577,3.734A.791.791,0,0,0,266.219,358.651Z"/><path class="h" d="M221.743,328.011a.787.787,0,0,0,.455-.147.925.925,0,0,0,.236-1.228l-3.18-5.162a.8.8,0,0,0-1.148-.253.925.925,0,0,0-.236,1.229l3.18,5.162A.816.816,0,0,0,221.743,328.011Z"/><path class="h" d="M218.892,417.178a.8.8,0,0,0,.6-.273l4.557-5.076a.932.932,0,0,0-.024-1.254.79.79,0,0,0-1.172.026l-4.557,5.076a.93.93,0,0,0,.024,1.254A.8.8,0,0,0,218.892,417.178Z"/><path class="h" d="M235.637,416.122a.8.8,0,0,0,.6-.272l4.557-5.077a.928.928,0,0,0-.024-1.253.791.791,0,0,0-1.172.025l-4.557,5.077a.93.93,0,0,0,.024,1.253A.8.8,0,0,0,235.637,416.122Z"/><path class="h" d="M247.676,450.437a.937.937,0,0,0-.029-.7L244.8,443.4a.805.805,0,0,0-1.1-.416.915.915,0,0,0-.389,1.183l2.844,6.346a.805.805,0,0,0,1.106.416A.865.865,0,0,0,247.676,450.437Z"/><path class="h" d="M199.622,471.375a.937.937,0,0,0-.029-.7l-2.845-6.346a.806.806,0,0,0-1.1-.416.915.915,0,0,0-.39,1.183l2.845,6.346a.805.805,0,0,0,1.106.416A.862.862,0,0,0,199.622,471.375Z"/><path class="h" d="M220.257,481.885c.555.04,1.11.075,1.661.1l.58-3.953a.878.878,0,0,0-.691-1.011.836.836,0,0,0-.945.739Z"/><path class="h" d="M213.639,469.938a.892.892,0,0,0,.344-.589L215,462.4a.88.88,0,0,0-.69-1.013.837.837,0,0,0-.947.739l-1.019,6.952a.88.88,0,0,0,.691,1.013A.778.778,0,0,0,213.639,469.938Z"/><path class="h" d="M253.647,411.806a.787.787,0,0,0,.415-.12.922.922,0,0,0,.3-1.212l-3.3-6.09a.8.8,0,0,0-1.133-.323.919.919,0,0,0-.3,1.211l3.3,6.091A.82.82,0,0,0,253.647,411.806Z"/><path class="h" d="M243.968,396.582a.824.824,0,0,0,.738-.48l3.017-6.254a.918.918,0,0,0-.357-1.195.8.8,0,0,0-1.117.382l-3.017,6.254a.917.917,0,0,0,.357,1.194A.783.783,0,0,0,243.968,396.582Z"/><path class="h" d="M270.181,395.665a.862.862,0,0,0,.313.246.793.793,0,0,0,.855-.141l3.392-3.047c-.017-.756-.033-1.513-.054-2.269l-4.407,3.957A.934.934,0,0,0,270.181,395.665Z"/><path class="h" d="M244.012,330.231a.822.822,0,0,0,.737-.48l3.017-6.254a.917.917,0,0,0-.357-1.194.8.8,0,0,0-1.117.381l-3.016,6.254a.918.918,0,0,0,.356,1.2A.785.785,0,0,0,244.012,330.231Z"/><path class="h" d="M224.677,353.143a.785.785,0,0,0,.158-.016.887.887,0,0,0,.657-1.038l-1.248-6.91a.833.833,0,0,0-.971-.7.885.885,0,0,0-.657,1.038l1.247,6.91A.846.846,0,0,0,224.677,353.143Z"/><path class="h" d="M235.442,359.21a.769.769,0,0,0,.157-.016.885.885,0,0,0,.657-1.038l-1.247-6.91a.836.836,0,0,0-.971-.7.887.887,0,0,0-.658,1.039l1.248,6.91A.846.846,0,0,0,235.442,359.21Z"/><path class="h" d="M227.73,336.413a.814.814,0,0,0,.7-.411l3.527-5.941a.924.924,0,0,0-.256-1.224.8.8,0,0,0-1.144.273l-3.527,5.941a.924.924,0,0,0,.256,1.224A.785.785,0,0,0,227.73,336.413Z"/><path class="h" d="M260.076,397.68a.931.931,0,0,0,.143-.988l-2.833-6.351a.807.807,0,0,0-1.106-.418.913.913,0,0,0-.391,1.182l2.834,6.351a.806.806,0,0,0,1.105.418A.815.815,0,0,0,260.076,397.68Z"/><path class="h" d="M238.745,379.254a.832.832,0,0,0,.772-.565l2.4-6.552a.907.907,0,0,0-.47-1.149.812.812,0,0,0-1.074.5l-2.4,6.553a.906.906,0,0,0,.47,1.149A.77.77,0,0,0,238.745,379.254Z"/><path class="h" d="M212.4,419.73a.786.786,0,0,0,.374-.1.917.917,0,0,0,.365-1.192l-2.971-6.279a.8.8,0,0,0-1.115-.39.916.916,0,0,0-.365,1.191l2.972,6.279A.822.822,0,0,0,212.4,419.73Z"/><path class="h" d="M256.063,464.858a.958.958,0,0,0,.093.4.8.8,0,0,0,1.118.379l5.842-3.237a.916.916,0,0,0,.355-1.2.8.8,0,0,0-1.118-.379l-5.842,3.237A.9.9,0,0,0,256.063,464.858Z"/><path class="h" d="M271.924,468.883a.913.913,0,0,0,.091.4.8.8,0,0,0,1.118.378l2.541-1.407c0-.642,0-1.3,0-1.992l-3.3,1.825A.9.9,0,0,0,271.924,468.883Z"/><path class="h" d="M247.376,476.71l2,4.564c.362-.04.723-.084,1.089-.128l.654-.079-2.241-5.109a.8.8,0,0,0-1.1-.427A.909.909,0,0,0,247.376,476.71Z"/><path class="h" d="M201.616,403.717a.847.847,0,0,0,.818-.742l1.073-6.943a.882.882,0,0,0-.683-1.02.838.838,0,0,0-.953.731l-1.074,6.943a.884.884,0,0,0,.683,1.02A.909.909,0,0,0,201.616,403.717Z"/><path class="h" d="M200.932,352.487a.786.786,0,0,0,.422-.124.92.92,0,0,0,.291-1.214l-3.352-6.056a.8.8,0,0,0-1.135-.311.92.92,0,0,0-.292,1.214l3.352,6.056A.819.819,0,0,0,200.932,352.487Z"/><path class="h" d="M211.709,377.1a.79.79,0,0,0,.45-.142l5.525-3.822a.926.926,0,0,0,.246-1.226.8.8,0,0,0-1.147-.263l-5.525,3.821a.927.927,0,0,0-.246,1.227A.817.817,0,0,0,211.709,377.1Z"/><path class="h" d="M270.208,418.38a.786.786,0,0,0,.374-.1.916.916,0,0,0,.365-1.191l-2.971-6.279a.8.8,0,0,0-1.114-.391.918.918,0,0,0-.366,1.192l2.971,6.279A.824.824,0,0,0,270.208,418.38Z"/><path class="h" d="M202.295,386.638a.816.816,0,0,0,.7-.416.923.923,0,0,0-.263-1.222l-5.577-3.734a.8.8,0,0,0-1.143.281.924.924,0,0,0,.263,1.222l5.577,3.734A.791.791,0,0,0,202.295,386.638Z"/><path class="h" d="M215.666,395.52a.787.787,0,0,0,.781.205.9.9,0,0,0,.582-1.088l-1.726-6.791a.825.825,0,0,0-1.018-.623.9.9,0,0,0-.583,1.088l1.727,6.791A.9.9,0,0,0,215.666,395.52Z"/><path class="h" d="M192.128,323.845l1.443,2.339a.821.821,0,0,0,.7.4.762.762,0,0,0,.452-.145.925.925,0,0,0,.238-1.227l-1.6-2.6A15.6,15.6,0,0,0,192.128,323.845Z"/><path class="h" d="M185.821,339.284l1.533,2.488a.8.8,0,0,0,1.152.255.93.93,0,0,0,.234-1.231l-2.175-3.531C186.322,337.916,186.076,338.593,185.821,339.284Z"/><path class="h" d="M257.535,440.3a.8.8,0,0,0,.6-.273l4.557-5.077a.928.928,0,0,0-.024-1.253.791.791,0,0,0-1.172.025l-4.557,5.077a.93.93,0,0,0,.024,1.253A.8.8,0,0,0,257.535,440.3Z"/><path class="h" d="M227.215,458.051a.8.8,0,0,0,.6-.273l4.557-5.076a.932.932,0,0,0-.024-1.254.791.791,0,0,0-1.172.026l-4.557,5.076a.932.932,0,0,0,.024,1.254A.8.8,0,0,0,227.215,458.051Z"/><path class="h" d="M218.788,451a.926.926,0,0,0,.178-.669l-.822-6.982a.842.842,0,0,0-.926-.769.874.874,0,0,0-.718.99l.821,6.982a.841.841,0,0,0,.926.769A.812.812,0,0,0,218.788,451Z"/><path class="h" d="M236.058,470.681a.8.8,0,0,0,.6-.273l4.557-5.076a.93.93,0,0,0-.024-1.253.79.79,0,0,0-1.172.025l-4.557,5.077a.928.928,0,0,0,.024,1.253A.8.8,0,0,0,236.058,470.681Z"/><path class="h" d="M187.005,451.47c0,.6,0,1.2,0,1.78l5.143.462a.847.847,0,0,0,.9-.809.871.871,0,0,0-.757-.958Z"/><path class="h" d="M247.243,429.629a.8.8,0,0,0,.6-.273l4.557-5.076a.932.932,0,0,0-.024-1.254.791.791,0,0,0-1.172.026l-4.557,5.076a.931.931,0,0,0,.023,1.254A.8.8,0,0,0,247.243,429.629Z"/><path class="h" d="M225.319,427.423a.906.906,0,0,0,.294.62l5.036,4.529a.792.792,0,0,0,1.168-.108.929.929,0,0,0-.1-1.249l-5.037-4.529a.79.79,0,0,0-1.167.108A.918.918,0,0,0,225.319,427.423Z"/><path class="h" d="M201.324,452.335a.78.78,0,0,0,.414-.119.921.921,0,0,0,.3-1.212l-3.3-6.09a.8.8,0,0,0-1.133-.323.921.921,0,0,0-.3,1.211l3.3,6.091A.818.818,0,0,0,201.324,452.335Z"/><path class="h" d="M195.618,434.232a.823.823,0,0,0,.737-.48l3.017-6.254a.917.917,0,0,0-.357-1.194.8.8,0,0,0-1.117.381l-3.016,6.254a.916.916,0,0,0,.356,1.194A.787.787,0,0,0,195.618,434.232Z"/><path class="h" d="M204.616,363.224a.826.826,0,0,0,.738-.48l3.016-6.254a.918.918,0,0,0-.357-1.195.8.8,0,0,0-1.117.382l-3.016,6.254a.917.917,0,0,0,.357,1.194A.78.78,0,0,0,204.616,363.224Z"/><path class="h" d="M201.322,336.979a.778.778,0,0,0,.158-.016.885.885,0,0,0,.657-1.039l-1.248-6.909a.834.834,0,0,0-.971-.7.886.886,0,0,0-.657,1.039l1.248,6.909A.845.845,0,0,0,201.322,336.979Z"/><path class="h" d="M186.17,360.822a.771.771,0,0,0,.158-.016.885.885,0,0,0,.657-1.039l-1.247-6.909a.836.836,0,0,0-.972-.7.887.887,0,0,0-.657,1.039l1.248,6.909A.845.845,0,0,0,186.17,360.822Z"/><path class="h" d="M212.087,343.046a.778.778,0,0,0,.158-.016.885.885,0,0,0,.657-1.039l-1.248-6.909a.834.834,0,0,0-.971-.7.885.885,0,0,0-.657,1.039l1.248,6.909A.845.845,0,0,0,212.087,343.046Z"/><path class="h" d="M207.146,318.977a.775.775,0,0,0,.461-.026.867.867,0,0,0,.534-.633l1.394-6.345-1.949,1.116-1.056,4.82A.888.888,0,0,0,207.146,318.977Z"/><path class="h" d="M188.177,371.505a.816.816,0,0,0,.7-.411l3.526-5.942a.924.924,0,0,0-.255-1.224A.8.8,0,0,0,191,364.2l-3.526,5.941a.924.924,0,0,0,.256,1.224A.789.789,0,0,0,188.177,371.505Z"/><path class="h" d="M211.725,435.331a.933.933,0,0,0,.143-.989l-2.833-6.351a.807.807,0,0,0-1.106-.418.914.914,0,0,0-.391,1.182l2.834,6.351a.806.806,0,0,0,1.105.418A.828.828,0,0,0,211.725,435.331Z"/><path class="h" d="M270.045,447.266l5.538.958c0-.593-.008-1.191-.016-1.8l-5.254-.915a.838.838,0,0,0-.95.735A.882.882,0,0,0,270.045,447.266Z"/><path class="h" d="M271.731,431.04l3.688.638c-.008-.6-.012-1.2-.021-1.8l-3.4-.589a.836.836,0,0,0-.949.734A.877.877,0,0,0,271.731,431.04Z"/><path class="h" d="M190.394,416.9a.831.831,0,0,0,.772-.564l2.4-6.553a.907.907,0,0,0-.47-1.149.812.812,0,0,0-1.074.5l-2.4,6.553a.908.908,0,0,0,.47,1.148A.774.774,0,0,0,190.394,416.9Z"/><path class="h" d="M187.348,396.23c1.557-6.433,3.513-13.583,5.453-19.743l.013-.036c.6-1.9,1.2-3.711,1.781-5.369a.469.469,0,0,1,.03-.087c.181-.524.365-1.029.546-1.522a.9.9,0,0,0,.044-.255v0a.732.732,0,0,0-1.421-.242c-1.987,5.417-4.335,13.218-6.349,20.869Q187.393,393.019,187.348,396.23Z"/><path class="i" d="M251.461,274.159s3.692-4.923,6.437-.852-1.136,16.093-7.857,13.159Z"/><path class="c" d="M251.509,282.75a.567.567,0,0,0,.546-.415c1.042-3.711,4.887-5.216,4.926-5.231a.568.568,0,0,0-.4-1.062c-.18.068-4.418,1.712-5.618,5.987a.569.569,0,0,0,.394.7A.583.583,0,0,0,251.509,282.75Z"/><path class="c" d="M255.39,280.88a.567.567,0,0,0,.477-.875,5.174,5.174,0,0,0-2.132-1.719.568.568,0,1,0-.463,1.037,4.112,4.112,0,0,1,1.64,1.3A.567.567,0,0,0,255.39,280.88Z"/><path class="i" d="M213.413,274.159s-3.692-4.923-6.437-.852,1.136,16.093,7.857,13.159Z"/><path class="c" d="M213.366,282.75a.568.568,0,0,1-.547-.415c-1.041-3.711-4.887-5.216-4.926-5.231a.568.568,0,0,1,.4-1.062c.179.068,4.417,1.712,5.617,5.987a.567.567,0,0,1-.394.7A.581.581,0,0,1,213.366,282.75Z"/><path class="c" d="M209.484,280.88a.567.567,0,0,1-.477-.875,5.183,5.183,0,0,1,2.132-1.719.568.568,0,0,1,.464,1.037,4.111,4.111,0,0,0-1.641,1.3A.566.566,0,0,1,209.484,280.88Z"/><path class="f" d="M223.349,296.663v11.956s3.566,6.089,8.387,6.5,9.1-5.242,9.1-5.242V297.5Z"/><path class="c" d="M223.349,296.663v5.3c3.235,3.59,8.982,4.487,17.485,3.232v-7.7Z"/><path class="g" d="M210.746,265.959a115.269,115.269,0,0,0,1.549,15.1v.013a.17.17,0,0,0,.009.045l0,.009c.219,1.134.464,2.2.732,3.16.161.562.335,1.152.531,1.754,2.834,8.891,9.4,21.759,25.9,15.872,6.95-2.477,10.569-9.654,12.413-17.439.107-.464.21-.923.3-1.365.062-.3.12-.581.174-.862l.08-.415c.014-.071.023-.12.027-.152a.127.127,0,0,0,0-.026,85.165,85.165,0,0,0,1.174-16.363,12.478,12.478,0,0,0-6.333-10.618c-10.4-5.9-21.371-3.7-28.6-.92A12.43,12.43,0,0,0,210.746,265.959Z"/><path class="e" d="M212.29,281.059l.005.013a.17.17,0,0,0,.009.045l0,.009c.107.388.687,2.517,1.263,4.914,2.834,8.891,9.4,21.759,25.9,15.872,6.95-2.477,10.569-9.654,12.413-17.439.107-.464.21-.923.3-1.365.062-.3.12-.581.174-.862l.08-.415c.014-.071.023-.12.027-.152a.127.127,0,0,0,0-.026l-2.428-.491a18.519,18.519,0,0,1-2.749,6.387c-2.053-4.919-12.471-1.652-12.471-1.652l-.049.018a6.443,6.443,0,0,1-3.936-.018s-10.293-3.41-12.426,1.281a65.558,65.558,0,0,1-3.58-6.3l-2.535.179Zm20.514,7.066c11.779-1.589,9.926,4.753,9.926,4.753a19.753,19.753,0,0,1-3.307,2.513,13.573,13.573,0,0,1-6.936,1.888c-1.808-.076-2.3.294-6.874-2.178a11.546,11.546,0,0,1-2.423-1.839h-.005v-.005C222.989,292.017,220.994,286.094,232.8,288.125Z"/><path class="e" d="M222.13,274.605c0,1.277.658,2.311,1.47,2.311s1.469-1.034,1.469-2.311-.658-2.311-1.469-2.311S222.13,273.329,222.13,274.605Z"/><path class="e" d="M240.5,274.605c0,1.277.658,2.311,1.469,2.311s1.469-1.034,1.469-2.311-.657-2.311-1.469-2.311S240.5,273.329,240.5,274.605Z"/><path class="e" d="M218.369,266.813s6.071-2.4,10.745-.38l-.467,2.6s-6.861-.58-10.318.821A4.514,4.514,0,0,1,218.369,266.813Z"/><path class="e" d="M247.234,266.825s-6.115-2.417-10.824-.383l.471,2.619s6.911-.584,10.393.827A4.541,4.541,0,0,0,247.234,266.825Z"/><path class="c" d="M232.24,284.933a6.033,6.033,0,0,1-2.056-.433.568.568,0,1,1,.429-1.051,3.415,3.415,0,0,0,2.279.215.618.618,0,0,0,.279-.529,86.2,86.2,0,0,0-.343-8.7.568.568,0,0,1,1.132-.093,84.376,84.376,0,0,1,.341,8.909,1.735,1.735,0,0,1-.826,1.387A2.394,2.394,0,0,1,232.24,284.933Z"/><path class="g" d="M239.481,289.26c-.431,2.169-1.865,6.161-6.693,6.161s-6.2-3.648-6.663-6.161Z"/><path class="e" d="M259.737,244.235c-2.54-2.08-10.3,3.38-10.3,3.38s7.27-7.66,4.22-10.52c-2.87-2.7-11.29,5.86-12.2,6.8.65-.71,5.55-6.33.51-9.01-5.39-2.86-10.97,7.66-16.9,7.92s-9.4,8.14-9.4,8.14-5.96-.08-8.14,7.32,3.6,13.76,3.6,13.76h.02c.26,3.1.63,6.26,1.15,9.02l2.54-.18s-.62-3.99-.9-6.6c-.08-.67-.16-1.5-.22-2.37-.14-2.47.02-5.26,1.629-5.7,2.181-.61.9-6.16,3.931-8.56s9.8-3.08,14.26-.28,9.5-.21,11.55.28c2.07.48,4.86,3.37,4.1,6.07-.68,2.41,1.07,3.98,1.84,6.28a7.028,7.028,0,0,1,.23.85c.55,2.8-1.21,10.32-1.21,10.32l2.42.5a81,81,0,0,0,1.15-11.8h.01c5.62-4.51.03-14.58.03-14.58S262.287,246.315,259.737,244.235Z"/><path class="c" d="M232.645,292.537a5.839,5.839,0,0,0,2.74-.8.584.584,0,0,0-.613-.994h0a4.714,4.714,0,0,1-2.127.627,4.969,4.969,0,0,1-2.243-.63.584.584,0,0,0-.6,1A6.1,6.1,0,0,0,232.645,292.537Z"/><path class="c" d="M315.263,393.9c-1.543,14.082-10.738,45.541-17.1,51.7-8.288,8.023-35.563,24.914-49.77,33.574-2.563,1.562,9.476,11.966,9.476,11.966s37.721-16.131,52.128-28.849c4.075-3.6,12.35-14.946,21.691-36.561,2.833-6.554,9.7-19.771,9.34-28.389C340.614,387.423,324.856,389.055,315.263,393.9Z"/><path class="f" d="M285.829,474.787s-10.26,3.9-13.9,8.182-8.441,7.922-7.272,9.61,6.493-3.246,6.493-3.246,1.459,5.425,6.623,6.01,14.935-9.517,14.935-9.517Z"/><path class="b" d="M387.1,433.214c0,.891-.006,1.945-.021,3.14s-.042,2.517-.078,3.969q-.043,1.492-.1,3.151-.051,1.394-.109,2.893-.066,1.531-.143,3.158c-.714,14.748-2.442,35.111-6.239,51.436H300.6c2.662-11.865,6.735-30.579,9.966-54.859q.2-1.531.4-3.093t.392-3.154c.071-.563.138-1.132.206-1.7.054-.47.109-.938.161-1.4q.222-1.963.4-3.86c.1-1.054.195-2.09.283-3.114,1.369-16.324.886-28.558,2.852-35.885,2.291-8.53,29-18.309,29-18.309l16.735.876s15.956,5.21,24.486,12.7,1.4,29.841,1.605,42.532C387.1,432.128,387.1,432.637,387.1,433.214Z"/><path class="j" d="M387.082,436.354a186.446,186.446,0,0,1-22.257,1.229,330.4,330.4,0,0,1-52.7-4.689c.1-1.054.195-2.09.283-3.114,6.426,1.138,43.613,7.288,74.693,3.434C387.105,434.105,387.1,435.159,387.082,436.354Z"/><path class="j" d="M387,440.323q-.043,1.492-.1,3.151a187.2,187.2,0,0,1-22.083,1.2,330,330,0,0,1-53.467-4.824c.071-.563.138-1.132.206-1.7.054-.47.109-.938.161-1.4C315.423,437.429,354.524,444.328,387,440.323Z"/><path class="j" d="M386.8,446.367q-.066,1.531-.143,3.158a184.37,184.37,0,0,1-23.041,1.325,330.3,330.3,0,0,1-53.051-4.748q.2-1.531.4-3.093C316.727,444.035,355.14,450.51,386.8,446.367Z"/><path class="c" d="M349.092,391.641c8.321,0,16-8.844,16.33-9.233a.587.587,0,0,0-.892-.764c-.08.094-8.119,9.356-16.155,8.8a.587.587,0,0,0-.081,1.172C348.56,391.632,348.827,391.641,349.092,391.641Z"/><path class="c" d="M356.306,491.108a.587.587,0,0,0,.066-1.17c-21.494-2.474-30.4-39.68-30.485-40.055a.587.587,0,0,0-1.144.266c.364,1.566,9.187,38.388,31.495,40.956C356.261,491.107,356.283,491.108,356.306,491.108Z"/><path class="c" d="M347.747,479.85a.587.587,0,0,0,.308-1.087c-11.432-7.048-13.132-17.438-13.148-17.542a.587.587,0,0,0-1.161.175c.067.446,1.775,11.019,13.693,18.367A.585.585,0,0,0,347.747,479.85Z"/><path class="g" d="M371.507,356.365l.76-3.92a.642.642,0,0,0,.39.2.81.81,0,0,0,.16-.01.586.586,0,0,0,.46-.52,6.536,6.536,0,0,1,.29-1.5c.35-.48.68-.98,1-1.5a3.968,3.968,0,0,1,1.2.74.571.571,0,0,0,.52.16.542.542,0,0,0,.29-.15.57.57,0,0,0,.01-.81,4.594,4.594,0,0,0-1.44-.95c.13-.25.27-.51.39-.77a9.75,9.75,0,0,1,1.58-1.38.572.572,0,0,0-.57-.99.052.052,0,0,0-.04.02,10.756,10.756,0,0,0-2.99,3.03,10.074,10.074,0,0,0-.6,1.09l.34-1.78h.3c.18-1.29.34-2.62.47-3.96l.39-2a3.4,3.4,0,0,1,3.12.01,3.186,3.186,0,0,1,1.07,1.04C381.377,346.525,378.3,359.325,371.507,356.365Z"/><path class="g" d="M373.557,347.325h-.3l.77-3.96C373.9,344.7,373.737,346.035,373.557,347.325Z"/><path class="g" d="M377.117,345.955a9.75,9.75,0,0,0-1.58,1.38c-.12.26-.26.52-.39.77a4.594,4.594,0,0,1,1.44.95.57.57,0,0,1-.01.81.542.542,0,0,1-.29.15.571.571,0,0,1-.52-.16,3.968,3.968,0,0,0-1.2-.74c-.32.52-.65,1.02-1,1.5a6.536,6.536,0,0,0-.29,1.5.586.586,0,0,1-.46.52.81.81,0,0,1-.16.01.642.642,0,0,1-.39-.2l.05-.23.6-3.11a10.074,10.074,0,0,1,.6-1.09,10.756,10.756,0,0,1,2.99-3.03.052.052,0,0,1,.04-.02.572.572,0,0,1,.57.99Z"/><path class="c" d="M377.117,345.955a9.75,9.75,0,0,0-1.58,1.38,7.051,7.051,0,0,0-.59.69,8.39,8.39,0,0,0-.67.98,7.617,7.617,0,0,0-.71,1.61,6.536,6.536,0,0,0-.29,1.5.586.586,0,0,1-.46.52.81.81,0,0,1-.16.01.642.642,0,0,1-.39-.2.868.868,0,0,1-.07-.1.562.562,0,0,1-.07-.32,8.209,8.209,0,0,1,.79-2.92,10.074,10.074,0,0,1,.6-1.09,10.756,10.756,0,0,1,2.99-3.03.052.052,0,0,1,.04-.02.572.572,0,0,1,.57.99Z"/><path class="c" d="M376.577,349.865a.542.542,0,0,1-.29.15.571.571,0,0,1-.52-.16,3.968,3.968,0,0,0-1.2-.74,2.491,2.491,0,0,0-.29-.11,3.632,3.632,0,0,0-.39-.11.581.581,0,0,1-.44-.69.752.752,0,0,1,.08-.18.582.582,0,0,1,.61-.25,5.519,5.519,0,0,1,.81.25c.07.03.14.06.2.08a4.594,4.594,0,0,1,1.44.95A.57.57,0,0,1,376.577,349.865Z"/><path class="g" d="M334.831,343.5s-3.73-4.973-6.5-.861,1.147,16.259,7.937,13.294Z"/><path class="c" d="M334.783,352.179a.574.574,0,0,1-.553-.419c-1.052-3.749-4.937-5.27-4.976-5.285a.574.574,0,0,1,.406-1.073c.182.069,4.463,1.73,5.675,6.048a.574.574,0,0,1-.4.708A.6.6,0,0,1,334.783,352.179Z"/><path class="c" d="M330.861,350.29a.573.573,0,0,1-.482-.884,5.24,5.24,0,0,1,2.154-1.736.573.573,0,1,1,.468,1.047,4.159,4.159,0,0,0-1.657,1.31A.572.572,0,0,1,330.861,350.29Z"/><path class="f" d="M361.883,366.235v12.079s-4.966,5.323-9.838,5.742-7.827-5.357-7.827-5.357V367.084Z"/><path class="c" d="M361.883,366.235v5.359c-3.269,3.627-9.074,4.533-17.665,3.265v-7.775Z"/><path class="g" d="M374.617,335.214a117.428,117.428,0,0,1-1.566,15.258c-.224,1.171-.476,2.272-.758,3.259-2.542,8.9-8.9,24.164-26.7,17.806-7.862-2.806-11.505-11.563-13.129-20.468a86.106,86.106,0,0,1-1.188-16.526,12.608,12.608,0,0,1,6.4-10.73c10.507-5.956,21.593-3.736,28.892-.93A12.567,12.567,0,0,1,374.617,335.214Z"/><path class="e" d="M353.263,343.746v.952a7.127,7.127,0,0,0,7.108,7.137h.233a6.423,6.423,0,0,0,4.423-1.958,7,7,0,0,0,2.055-5.005v-1.126a2.541,2.541,0,0,0-.734-1.77,2.494,2.494,0,0,0-1.771-.735h-8.809a2.5,2.5,0,0,0-2.259,1.427,2.428,2.428,0,0,0-.243,1.012A.488.488,0,0,0,353.263,343.746Zm1.039,0a1.466,1.466,0,0,1,1.466-1.466h8.809a1.464,1.464,0,0,1,1.466,1.466v1.126a5.952,5.952,0,0,1-1.743,4.261,5.426,5.426,0,0,1-3.717,1.662h-.212a6.086,6.086,0,0,1-6.069-6.1Z"/><path class="e" d="M335.623,343.746v.952a7.127,7.127,0,0,0,7.109,7.137h.235a6.42,6.42,0,0,0,4.421-1.958,7.007,7.007,0,0,0,2.057-5.005v-1.126a.267.267,0,0,0,0-.049,2.412,2.412,0,0,0-.212-.959,2.5,2.5,0,0,0-2.289-1.5h-8.813a2.506,2.506,0,0,0-1.926.9,2.45,2.45,0,0,0-.482.929A2.275,2.275,0,0,0,335.623,343.746Zm1.039,0a1.467,1.467,0,0,1,1.466-1.466h8.813a1.466,1.466,0,0,1,1.465,1.466v1.126a5.968,5.968,0,0,1-1.742,4.261,5.427,5.427,0,0,1-3.718,1.662h-.214a6,6,0,0,1-4.265-1.763,6.058,6.058,0,0,1-1.805-4.334Z"/><path class="e" d="M373.361,340.821a12.417,12.417,0,0,0-5.974,1.155c-.236.114-.866.524-.893.541l.494.882c.007,0,.7-.415.967-.54a10.885,10.885,0,0,1,5.406-1Z"/><path class="e" d="M353.961,343.785l.341-.982a10.6,10.6,0,0,0-3.123-.523,7.009,7.009,0,0,0-2.85.546l.454.935a6.089,6.089,0,0,1,2.4-.442A9.7,9.7,0,0,1,353.961,343.785Z"/><path class="e" d="M331.984,341.071v1.042a13.44,13.44,0,0,1,4.169,1.151l.457-.932A14.081,14.081,0,0,0,331.984,341.071Z"/><path class="e" d="M343.778,345.077c0,1.289-.664,2.334-1.484,2.334s-1.484-1.045-1.484-2.334.665-2.335,1.484-2.335S343.778,343.787,343.778,345.077Z"/><path class="e" d="M361.159,345.077c0,1.289-.664,2.334-1.484,2.334s-1.484-1.045-1.484-2.334.664-2.335,1.484-2.335S361.159,343.787,361.159,345.077Z"/><path class="e" d="M337.466,337.907s6.179-2.441,10.936-.386l-.4,2.208a20.064,20.064,0,0,0-10.2.731C337.493,339.442,337.065,338.954,337.466,337.907Z"/><path class="e" d="M365.739,337.907s-6.178-2.441-10.936-.386l.4,2.208a20.064,20.064,0,0,1,10.2.731C365.712,339.442,366.14,338.954,365.739,337.907Z"/><path class="c" d="M351.9,354.861a6.107,6.107,0,0,0,2.077-.438.574.574,0,0,0-.434-1.062,3.445,3.445,0,0,1-2.3.217.622.622,0,0,1-.282-.534,86.8,86.8,0,0,1,.347-8.788.574.574,0,0,0-1.144-.094,84.833,84.833,0,0,0-.344,9,1.753,1.753,0,0,0,.834,1.4A2.419,2.419,0,0,0,351.9,354.861Z"/><path class="g" d="M344.783,357.774c.468,2.359,2.027,6.7,7.278,6.7s6.74-3.967,7.247-6.7Z"/><path class="c" d="M351.99,367.47a6,6,0,0,0,2.8-.784.574.574,0,0,0-.6-.982,4.873,4.873,0,0,1-2.2.619,4.651,4.651,0,0,1-2.088-.616.574.574,0,0,0-.6.976A5.741,5.741,0,0,0,351.99,367.47Z"/><path class="e" d="M379.5,325.035c-.98-4.5-2.24-10.13-12.18-10.72-6.75-.39-12.55-13.64-20.11-7.92-6.4,4.84-6.48,1.5-11.35,2.44-5.57,1.08-4.3,4.99-3.74,9.3s-5.9.73-6.65,6.24c-.88,6.47,5.79,8.31,5.79,8.31h.01a22.639,22.639,0,0,0-.39,4.23,22.96,22.96,0,0,0,.54,5.01c.1,1.74.25,3.55.48,5.4h2.34c-.43-2.36-.86-5.42-.55-6.98.56-2.77,2.86-4.4,2.09-7.07a3.21,3.21,0,0,1-.11-.59c-.24-2.51,2.32-5,4.25-5.44,2.08-.49,6.94.55,11.72-1.72,4.57-2.17,12.5-.62,13.79,2.31,1.06,2.39.44,3.32,1.22,4.85a10.834,10.834,0,0,0,2.49,2.87c1.7,1.53-.32,5.5-.61,8.08a19.082,19.082,0,0,0-.1,3.05l.02.64h5.11c.18-1.29.34-2.62.47-3.96l.39-2a3.4,3.4,0,0,1,3.12.01,22.563,22.563,0,0,0,.43-4.46,22.961,22.961,0,0,0-.54-5.01A7.926,7.926,0,0,0,379.5,325.035Z"/><path class="c" d="M382.091,386.54C373.7,399.251,341.609,443.2,334.367,448.3c-9.427,6.646-35.126,16.1-49.881,25.948-5.013,3.348,6.831,12.821,6.831,12.821s35.966-10.111,52.164-20.451c4.582-2.925,23.64-22.016,35.791-38.949,4.163-5.8,10.934-13.857,11.914-22.427C392.313,395.381,389.215,390.1,382.091,386.54Z"/><path class="k" d="M2.313,0H102.3a2.314,2.314,0,0,1,2.314,2.314V10.28a2.313,2.313,0,0,1-2.313,2.313H2.313A2.313,2.313,0,0,1,0,10.28V2.313A2.313,2.313,0,0,1,2.313,0Z" transform="translate(216.18 488.367)"/><path class="e" d="M216.2,500.961l-19.663-73.639a6.514,6.514,0,0,1,6.293-8.195H246.1a6.515,6.515,0,0,1,6.272,4.753l21.652,77.081Z"/><path class="k" d="M252.375,423.881l21.472,76.446h4.944l-21.472-76.446a6.523,6.523,0,0,0-6.274-4.757H246.1A6.524,6.524,0,0,1,252.375,423.881Z"/><path class="l" d="M241.25,463.341c1.124,4.857-1.9,8.795-6.759,8.795a11.743,11.743,0,0,1-10.83-8.795c-1.124-4.857,1.9-8.8,6.76-8.8A11.74,11.74,0,0,1,241.25,463.341Z"/><path class="c" d="M375.327,229.737a6.6,6.6,0,1,1,6.6-6.6A6.611,6.611,0,0,1,375.327,229.737Zm0-11.135a4.531,4.531,0,1,0,4.532,4.531A4.536,4.536,0,0,0,375.327,218.6Z"/><path class="b" d="M399.1,252.9a6.6,6.6,0,1,1,6.6-6.6A6.61,6.61,0,0,1,399.1,252.9Zm0-11.135a4.531,4.531,0,1,0,4.532,4.532A4.537,4.537,0,0,0,399.1,241.768Z"/><path class="c" d="M407.257,274.361a1.036,1.036,0,0,1-1.035-1.036v-4.568a1.036,1.036,0,1,1,2.071,0v4.568A1.036,1.036,0,0,1,407.257,274.361Z"/><path class="c" d="M407.257,282.354a1.035,1.035,0,0,1-1.035-1.035v-4.568a1.036,1.036,0,1,1,2.071,0v4.568A1.035,1.035,0,0,1,407.257,282.354Z"/><path class="c" d="M413.669,276.074h-4.1a1.036,1.036,0,1,1,0-2.072h4.1a1.036,1.036,0,0,1,0,2.072Z"/><path class="c" d="M404.949,276.074h-4.1a1.036,1.036,0,1,1,0-2.072h4.1a1.036,1.036,0,0,1,0,2.072Z"/><path class="d" d="M370.8,248.765a1.036,1.036,0,0,1-1.036-1.036v-4.568a1.036,1.036,0,1,1,2.072,0v4.568A1.036,1.036,0,0,1,370.8,248.765Z"/><path class="d" d="M370.8,256.759a1.036,1.036,0,0,1-1.036-1.036v-4.568a1.036,1.036,0,1,1,2.072,0v4.568A1.036,1.036,0,0,1,370.8,256.759Z"/><path class="d" d="M377.207,250.478h-4.1a1.036,1.036,0,1,1,0-2.072h4.1a1.036,1.036,0,1,1,0,2.072Z"/><path class="d" d="M368.487,250.478h-4.1a1.036,1.036,0,1,1,0-2.072h4.1a1.036,1.036,0,1,1,0,2.072Z"/><path class="c" d="M68.877,199.419a6.6,6.6,0,1,1,6.6,6.6A6.61,6.61,0,0,1,68.877,199.419Zm2.072,0a4.532,4.532,0,1,0,4.531-4.532A4.536,4.536,0,0,0,70.949,199.419Z"/><path class="b" d="M42.359,224.589a6.6,6.6,0,1,1,6.6,6.6A6.611,6.611,0,0,1,42.359,224.589Zm2.071,0a4.532,4.532,0,1,0,4.532-4.532A4.537,4.537,0,0,0,44.43,224.589Z"/><path class="c" d="M28.63,233.855a1.036,1.036,0,0,0,1.036-1.036v-4.568a1.036,1.036,0,0,0-2.072,0v4.568A1.036,1.036,0,0,0,28.63,233.855Z"/><path class="c" d="M28.63,241.849a1.036,1.036,0,0,0,1.036-1.036v-4.568a1.036,1.036,0,0,0-2.072,0v4.568A1.036,1.036,0,0,0,28.63,241.849Z"/><path class="c" d="M22.218,235.568h4.1a1.036,1.036,0,1,0,0-2.072h-4.1a1.036,1.036,0,0,0,0,2.072Z"/><path class="c" d="M30.938,235.568h4.1a1.036,1.036,0,1,0,0-2.072h-4.1a1.036,1.036,0,0,0,0,2.072Z"/><path class="d" d="M52.5,198.742a1.036,1.036,0,0,0,1.036-1.036v-4.568a1.036,1.036,0,0,0-2.072,0v4.568A1.036,1.036,0,0,0,52.5,198.742Z"/><path class="d" d="M52.5,206.736a1.036,1.036,0,0,0,1.036-1.036v-4.568a1.036,1.036,0,1,0-2.072,0V205.7A1.036,1.036,0,0,0,52.5,206.736Z"/><path class="d" d="M46.086,200.455h4.1a1.036,1.036,0,0,0,0-2.072h-4.1a1.036,1.036,0,0,0,0,2.072Z"/><path class="d" d="M54.806,200.455h4.1a1.036,1.036,0,0,0,0-2.072h-4.1a1.036,1.036,0,0,0,0,2.072Z"/><path class="b" d="M323.611,206.43v20.107a4.816,4.816,0,0,1-4.815,4.814H282.288l-11.023,3.955a1.4,1.4,0,0,1-1.781-1.826l4.17-10.767V206.43a4.816,4.816,0,0,1,4.816-4.815H318.8A4.817,4.817,0,0,1,323.611,206.43Z"/><g class="m"><path class="j" d="M315.914,212.118H282.421a1.328,1.328,0,0,1-1.329-1.328h0a1.329,1.329,0,0,1,1.329-1.329h33.493a1.329,1.329,0,0,1,1.329,1.329h0A1.328,1.328,0,0,1,315.914,212.118Z"/><path class="j" d="M315.914,217.469H282.421a1.329,1.329,0,0,1-1.329-1.329h0a1.328,1.328,0,0,1,1.329-1.328h33.493a1.328,1.328,0,0,1,1.329,1.328h0A1.329,1.329,0,0,1,315.914,217.469Z"/><path class="j" d="M315.914,222.819H282.421a1.329,1.329,0,0,1-1.329-1.329h0a1.329,1.329,0,0,1,1.329-1.328h33.493a1.329,1.329,0,0,1,1.329,1.328h0A1.329,1.329,0,0,1,315.914,222.819Z"/></g><path class="d" d="M7.509,0H396.943a7.506,7.506,0,0,1,7.506,7.506v.719a7.506,7.506,0,0,1-7.506,7.506H7.506A7.506,7.506,0,0,1,0,8.225V7.509A7.509,7.509,0,0,1,7.509,0Z" transform="translate(26.853 500.975)"/><path class="c" d="M431.3,508.481v.359H26.853v-.359a7.505,7.505,0,0,1,7.506-7.506H423.794A7.507,7.507,0,0,1,431.3,508.481Z"/></g></svg>