<svg xmlns="http://www.w3.org/2000/svg" xmlns:xlink="http://www.w3.org/1999/xlink" width="248.051" height="70.538" viewBox="0 0 248.051 70.538"><defs><style>.a{clip-path:url(#b);}.b{fill:#946ef4;}.c{fill:#44464a;}.d{fill:#beaceb;}</style><clipPath id="b"><rect width="248.051" height="70.538"/></clipPath></defs><g id="a" class="a"><rect class="d" width="248.051" height="70.538"/><g transform="translate(-726.653)"><path class="b" d="M739,28.8a3.5,3.5,0,0,1-1.306,1.507,3.63,3.63,0,0,1-1.938.5A3.932,3.932,0,0,1,732.294,29a9.262,9.262,0,0,1-1.22-5.2,17.353,17.353,0,0,1,4.262-11.77,13.115,13.115,0,0,1,10.235-4.909,9.376,9.376,0,0,1,6.416,2.038,7.149,7.149,0,0,1,2.31,5.655,24.679,24.679,0,0,1-.717,5.168q-.719,3.186-2.3,8.123,6.457-11.509,10.85-16.1t8.67-4.594A5.028,5.028,0,0,1,774.78,9.02a6.581,6.581,0,0,1,1.421,4.507q0,3.588-4.507,13.521l-.66,1.406q7.492-11.481,12.588-16.405t9.343-4.924a5.079,5.079,0,0,1,3.862,1.594,5.714,5.714,0,0,1,1.507,4.091q0,3.559-4.824,14.984l-.774,1.837-.46,1.12q-4.823,11.57-4.822,13.693a3.217,3.217,0,0,0,1.32,2.856,8.273,8.273,0,0,0,4.306.991l-1.119,3.847H791.1q-5.684,0-8.281-1.881t-2.6-5.928q0-3.559,5.713-16.85,1.206-2.786,1.866-4.307l.288-.66q2.524-5.971,2.525-7.349a1.552,1.552,0,0,0-.4-1.076,1.239,1.239,0,0,0-.948-.445q-2.21,0-8.2,7.219a86.613,86.613,0,0,0-10.779,16.894q-1.523,2.986-2.913,6.129t-2.627,6.387a2.769,2.769,0,0,1-1.22,1.636,5.924,5.924,0,0,1-2.368.345,11.775,11.775,0,0,1-3.647-.416q-1.176-.416-1.176-1.277a35.186,35.186,0,0,1,2.124-5.2q1.665-3.76,2.755-6.258,4.02-9.243,6.273-15.358T769.742,16a2.154,2.154,0,0,0-.517-1.478,1.647,1.647,0,0,0-1.292-.589q-2.755,0-7.636,6.416a87.828,87.828,0,0,0-9.473,16.406q-1.723,3.76-3.445,8.382t-1.98,5.2a3.021,3.021,0,0,1-1.234,1.621,7.483,7.483,0,0,1-2.642.3,9.12,9.12,0,0,1-3.157-.431q-1.121-.43-1.12-1.2,0-.8,2.124-5.886t3.5-8.754a99.58,99.58,0,0,0,3.6-11.11,34.926,34.926,0,0,0,1.335-7.636,4.437,4.437,0,0,0-.962-3.057,3.481,3.481,0,0,0-2.741-1.076,6.222,6.222,0,0,0-5.139,3.028,12.14,12.14,0,0,0-2.153,7.22A8.724,8.724,0,0,0,737.4,26.6,4.763,4.763,0,0,0,739,28.8Z"/><path class="b" d="M791.961,52.138l1.09-3.876q3.388-.114,5.785-3.746t4.521-11.956q.316-1.32.746-3.359.861-4.333,5.655-4.335a3.562,3.562,0,0,1,1.708.33,1.046,1.046,0,0,1,.589.962,11.784,11.784,0,0,1-.99,3.359q-.99,2.5-1.421,3.875l-2.756,8.325-.115.345a16.513,16.513,0,0,0-1.033,3.9,1.782,1.782,0,0,0,.8,1.679,8.474,8.474,0,0,0,3.3.617l-1.091,3.876h-1a12.483,12.483,0,0,1-5.555-.962A4.01,4.01,0,0,1,800,48.09a12.061,12.061,0,0,1-3.661,2.942A10.762,10.762,0,0,1,791.961,52.138ZM811.337,16.11a3.472,3.472,0,0,1-2.569-.9,3.477,3.477,0,0,1-.9-2.569A5.22,5.22,0,0,1,809.2,9.006a4.168,4.168,0,0,1,3.2-1.479,3.427,3.427,0,0,1,2.526,1,3.5,3.5,0,0,1,1,2.583,5.059,5.059,0,0,1-1.32,3.56A4.263,4.263,0,0,1,811.337,16.11Z"/><path class="b" d="M815.529,49.324a8.841,8.841,0,0,1-2.943,1.995,11.388,11.388,0,0,1-3.8.819l1.091-3.876a6.605,6.605,0,0,0,5.109-2.827q2.094-2.714,3.818-8.742.832-2.9,1.722-6.889,1.149-5.34,3.646-5.34a13.733,13.733,0,0,1,3.215.259q.948.258.948.918a34.066,34.066,0,0,1-1.781,4.909q-1.779,4.421-3.157,8.554a49.486,49.486,0,0,1,8.2-10.607q3.719-3.342,7.278-3.344a3.9,3.9,0,0,1,2.813.962,3.537,3.537,0,0,1,1.005,2.684q0,1.953-3.33,10.19l-.718,1.809a29.286,29.286,0,0,0-1.134,3.259,9.437,9.437,0,0,0-.416,2.138,1.551,1.551,0,0,0,.8,1.493,8.9,8.9,0,0,0,3.187.574l-1.091,3.876h-.661q-4.708,0-6.9-1.264a4.247,4.247,0,0,1-2.2-3.961,13.744,13.744,0,0,1,.833-3.79q.832-2.555,2.526-6.516l.23-.545a17.852,17.852,0,0,0,1.464-3.9.949.949,0,0,0-.244-.718,1.085,1.085,0,0,0-.761-.229q-1.7,0-5.239,4.307a43.771,43.771,0,0,0-6.215,10.449q-.545,1.233-1.177,3.013a4.611,4.611,0,0,1-4.708,3.273,4.163,4.163,0,0,1-1.607-.215.769.769,0,0,1-.459-.761,2.516,2.516,0,0,1,.157-.76A10.371,10.371,0,0,1,815.529,49.324Z"/><path class="b" d="M839.987,52.138l1.119-3.876a14.984,14.984,0,0,0,2.828-.4,8.909,8.909,0,0,0,2.253-.89,12.016,12.016,0,0,1-.215-1.364,15.151,15.151,0,0,1-.072-1.564,18.118,18.118,0,0,1,1.264-6.574,20.567,20.567,0,0,1,3.559-5.971,20.832,20.832,0,0,1,6-4.995,13.844,13.844,0,0,1,6.574-1.693,9.95,9.95,0,0,1,2.583.33,13.151,13.151,0,0,1,2.584,1.019l4.479-12.4c.134-.363.315-.891.545-1.579q1.608-4.652,4.45-4.651a8.371,8.371,0,0,1,3.273.459,1.591,1.591,0,0,1,.975,1.551,7.507,7.507,0,0,1-.832,2.268q-.546,1.119-.833,1.779l-5.167,11.942a121.413,121.413,0,0,0-4.65,12.316q-1.809,5.8-1.809,7.492a2.471,2.471,0,0,0,.876,2.152,7.145,7.145,0,0,0,3.4.805l-1.12,3.847h-.516q-4.507,0-6.344-.949a3.322,3.322,0,0,1-1.837-3.214,11.086,11.086,0,0,1,.344-2.469,38.919,38.919,0,0,1,1.148-3.761,28.888,28.888,0,0,1-5.985,7.909,9.622,9.622,0,0,1-6.329,2.6,7.5,7.5,0,0,1-2.957-.56,4.146,4.146,0,0,1-1.924-1.478,8.819,8.819,0,0,1-3.014,1.307A24.574,24.574,0,0,1,839.987,52.138ZM866.942,30.2a5.84,5.84,0,0,0-1.005-.344,4.273,4.273,0,0,0-.976-.115,7.605,7.605,0,0,0-4.176,1.378,18.144,18.144,0,0,0-4.235,4.1,22.4,22.4,0,0,0-2.985,4.966,11.516,11.516,0,0,0-1.148,4.364,3.113,3.113,0,0,0,.631,2.052,2.057,2.057,0,0,0,1.665.761q2.5,0,5.669-4.449A64.943,64.943,0,0,0,866.942,30.2Z"/><path class="c" d="M880.346,21.958h3.91a1.481,1.481,0,0,1,.955.294,1.144,1.144,0,0,1,.427.793l2.734,19.166a16.186,16.186,0,0,1,.162,1.984q.014.956.044,1.9.352-.94.719-1.9t.78-1.984l8.142-19.283a1.679,1.679,0,0,1,.574-.736,1.47,1.47,0,0,1,.9-.294h2.175a1.311,1.311,0,0,1,.911.294,1.18,1.18,0,0,1,.383.736l3.321,19.283q.177,1.029.279,2c.069.646.133,1.294.192,1.94q.293-.941.573-1.925a20.46,20.46,0,0,1,.69-2.014l7.526-19.166a1.694,1.694,0,0,1,.588-.778,1.524,1.524,0,0,1,.94-.309h3.763L908.537,51.735h-3.968q-.676,0-.853-1L900.1,30.541c-.058-.313-.107-.632-.146-.955s-.079-.642-.118-.955q-.147.5-.294.97t-.353.969l-8.612,20.166q-.414,1-1.176,1h-3.822Z"/><path class="c" d="M945.575,28.337a8.056,8.056,0,0,1-.794,3.571,7.419,7.419,0,0,1-2.91,2.94,21.743,21.743,0,0,1-5.821,2.278,64.215,64.215,0,0,1-9.524,1.558c-.02.215-.029.426-.029.631v.632a9.2,9.2,0,0,0,1.719,6.012,6.355,6.355,0,0,0,5.189,2.072,9.749,9.749,0,0,0,2.514-.294,10.679,10.679,0,0,0,1.968-.719,8.925,8.925,0,0,0,1.53-.941q.66-.514,1.219-.941c.372-.283.715-.524,1.029-.72a1.761,1.761,0,0,1,.941-.294,1.284,1.284,0,0,1,.97.5l1.293,1.616a27.022,27.022,0,0,1-2.925,2.66,16.971,16.971,0,0,1-2.925,1.838,13.114,13.114,0,0,1-3.131,1.073,17.329,17.329,0,0,1-3.512.337,11.733,11.733,0,0,1-4.585-.852,9.47,9.47,0,0,1-3.44-2.425,10.921,10.921,0,0,1-2.176-3.806,15.4,15.4,0,0,1-.763-5,21.929,21.929,0,0,1,.484-4.571,21.4,21.4,0,0,1,1.411-4.336,19.634,19.634,0,0,1,2.264-3.821,15.214,15.214,0,0,1,3.057-3.042,14.344,14.344,0,0,1,3.792-2.014,13.226,13.226,0,0,1,4.454-.735,10.705,10.705,0,0,1,3.909.646,8.346,8.346,0,0,1,2.7,1.647,6.6,6.6,0,0,1,1.572,2.2A5.843,5.843,0,0,1,945.575,28.337Zm-8.995-3.028a7.637,7.637,0,0,0-3.411.764,9.069,9.069,0,0,0-2.762,2.1,12.808,12.808,0,0,0-2.058,3.145,18.716,18.716,0,0,0-1.323,3.9,57.05,57.05,0,0,0,7.261-1.278,18.077,18.077,0,0,0,4.2-1.559,4.057,4.057,0,0,0,2.411-3.836,2.911,2.911,0,0,0-.235-1.1,2.946,2.946,0,0,0-.75-1.044,4.1,4.1,0,0,0-1.337-.779A5.737,5.737,0,0,0,936.58,25.309Z"/><path class="c" d="M949.367,51.735l5.261-43.3h5.144l-5.262,43.3Z"/><path class="c" d="M963.329,51.735l5.261-43.3h5.144l-5.262,43.3Z"/></g></g></svg>